Coordinates
version=1
nRows=19
nColumns=24
inDegrees=yes

Units are S.I. units (second, meters, Newtons, ...)
Angles are in degrees.

endheader
time	pelvis_tilt	pelvis_list	pelvis_rotation	pelvis_tx	pelvis_ty	pelvis_tz	hip_flexion_r	hip_adduction_r	hip_rotation_r	knee_angle_r	ankle_angle_r	subtalar_angle_r	mtp_angle_r	hip_flexion_l	hip_adduction_l	hip_rotation_l	knee_angle_l	ankle_angle_l	subtalar_angle_l	mtp_angle_l	lumbar_extension	lumbar_bending	lumbar_rotation
      4.46000000	     11.75848072	      2.74850678	     -2.87370132	      0.16639212	      0.93877467	     -0.27399835	      2.73798976	     -5.76140260	     -3.84451100	    -64.63637517	     15.37910491	     -8.12996753	      0.00000000	     -9.16343037	      7.01054267	     13.03778544	    -14.32484287	     19.03436735	     -4.66157623	      0.00000000	    -25.53862308	     -4.00277231	     -0.98766082
      4.46500000	     11.68411356	      2.48829723	     -2.75399685	      0.17299181	      0.93934191	     -0.27394994	      3.59585456	     -5.40614029	     -3.98696585	    -64.04200713	     16.00486577	     -7.73438576	      0.00000000	     -9.78107392	      6.66546344	     13.11431821	    -13.80544617	     19.05463633	     -4.64528159	      0.00000000	    -25.46815994	     -3.64924419	     -1.19030240
      4.47000000	     11.65092999	      2.25204316	     -2.36742777	      0.17954320	      0.93990576	     -0.27414599	      4.31795123	     -5.09988885	     -4.41643201	    -63.31312305	     16.67114118	     -7.27608631	      0.00000000	    -10.40969003	      6.29843796	     13.44741907	    -13.36240580	     19.14422474	     -4.55054875	      0.00000000	    -25.46917469	     -3.24501535	     -1.68457137
      4.47500000	     11.62008371	      2.01749853	     -2.09339139	      0.18612840	      0.94041548	     -0.27423753	      5.04002849	     -4.79387398	     -4.72547228	    -62.51123115	     17.26638494	     -6.78728657	      0.00000000	    -11.05667099	      5.94560202	     13.64931155	    -12.87017966	     19.18045090	     -4.49988448	      0.00000000	    -25.45759476	     -2.87417894	     -2.05139566
      4.48000000	     11.57551074	      1.79677636	     -1.83545439	      0.19266034	      0.94082793	     -0.27427843	      5.76284396	     -4.49814557	     -5.00582830	    -61.63384445	     17.87238466	     -6.28129874	      0.00000000	    -11.67022023	      5.60328062	     13.80728559	    -12.40312857	     19.21922745	     -4.41978002	      0.00000000	    -25.43933407	     -2.53122913	     -2.38661080
      4.48500000	     11.49076891	      1.58952705	     -1.67051147	      0.19922308	      0.94112771	     -0.27421501	      6.52969209	     -4.20912565	     -5.17982581	    -60.69815866	     18.39836848	     -5.72757745	      0.00000000	    -12.24969332	      5.28824857	     13.85820980	    -11.90840849	     19.22619717	     -4.36641655	      0.00000000	    -25.36277630	     -2.23767261	     -2.62374648
      4.49000000	     11.50053987	      1.40057615	     -1.23047066	      0.20574787	      0.94150484	     -0.27444336	      7.09226992	     -3.97974250	     -5.64540909	    -59.60938226	     18.96261790	     -5.19881449	      0.00000000	    -12.89632065	      4.93410000	     14.16358716	    -11.48189091	     19.27685868	     -4.22079021	      0.00000000	    -25.42069056	     -1.85689176	     -3.16593645
      4.49500000	     11.41571552	      1.22274045	     -1.07391699	      0.21229715	      0.94166249	     -0.27438274	      7.80796202	     -3.72916784	     -5.79428386	    -58.51176706	     19.44986304	     -4.60597569	      0.00000000	    -13.46229796	      4.64888823	     14.18901145	    -11.00284716	     19.27491889	     -4.17110921	      0.00000000	    -25.35080325	     -1.59263461	     -3.38892906
      4.50000000	     11.45458160	      1.05234365	     -0.61956058	      0.21880763	      0.94194850	     -0.27459176	      8.27771082	     -3.52618610	     -6.25038082	    -57.24765126	     19.96835413	     -4.07059084	      0.00000000	    -14.12277218	      4.29721793	     14.46938173	    -10.59526536	     19.31713743	     -4.00437589	      0.00000000	    -25.44524236	     -1.23346719	     -3.93323591
      4.50500000	     11.46832675	      0.89352447	     -0.30279047	      0.22535883	      0.94211847	     -0.27466830	      8.77745474	     -3.32387812	     -6.55389198	    -55.93327169	     20.42643551	     -3.49642024	      0.00000000	    -14.76942083	      3.98605452	     14.60312299	    -10.15849579	     19.33236308	     -3.90829520	      0.00000000	    -25.49586380	     -0.93825672	     -4.32186705
      4.51000000	     11.36992767	      0.76503512	     -0.13899320	      0.23185768	      0.94205258	     -0.27457255	      9.42010200	     -3.12692030	     -6.66333461	    -54.59441566	     20.86881978	     -2.89672962	      0.00000000	    -15.28577782	      3.74487859	     14.60369489	     -9.73676258	     19.33172787	     -3.83698088	      0.00000000	    -25.42930397	     -0.73290200	     -4.54441973
      4.51500000	     11.43900923	      0.62658730	      0.33825629	      0.23837792	      0.94219248	     -0.27478073	      9.75321298	     -2.96935290	     -7.10133955	    -53.07023571	     21.29958023	     -2.38479727	      0.00000000	    -15.95158320	      3.40410756	     14.85280782	     -9.36822629	     19.37500476	     -3.65577733	      0.00000000	    -25.55744577	     -0.40251925	     -5.10244308
      4.52000000	     11.46590241	      0.50394885	      0.66339031	      0.24488127	      0.94217898	     -0.27483298	     10.14045471	     -2.80603746	     -7.35696394	    -51.50754631	     21.71011604	     -1.83826809	      0.00000000	    -16.57493419	      3.11793971	     14.96525639	     -8.99308199	     19.39755069	     -3.53375163	      0.00000000	    -25.64273117	     -0.14521514	     -5.47668770
      4.52500000	     11.46880239	      0.39999218	      0.98533985	      0.25137206	      0.94207644	     -0.27487073	     10.52165175	     -2.66047542	     -7.58358840	    -49.86854062	     22.09446547	     -1.31524953	      0.00000000	    -17.15663023	      2.84993308	     15.06718411	     -8.64813039	     19.42136892	     -3.39582880	      0.00000000	    -25.70548055	      0.09074872	     -5.85105282
      4.53000000	     11.37604513	      0.33216011	      1.17974766	      0.25787495	      0.94175906	     -0.27480693	     11.00822702	     -2.53986130	     -7.65648393	    -48.20161857	     22.45173457	     -0.76074445	      0.00000000	    -17.63508107	      2.66283908	     15.07260446	     -8.31526539	     19.45016755	     -3.30550871	      0.00000000	    -25.65541004	      0.24464778	     -6.08769364
      4.53500000	     11.47794298	      0.23867098	      1.67215775	      0.26435425	      0.94169754	     -0.27496542	     11.15871328	     -2.42825627	     -8.02553855	    -46.34516785	     22.76710967	     -0.34943776	      0.00000000	    -18.28444597	      2.34193587	     15.27610340	     -8.03227429	     19.49504894	     -3.09991785	      0.00000000	    -25.84483206	      0.52478191	     -6.63938576
      4.54000000	     11.51141778	      0.16635962	      2.00106016	      0.27085051	      0.94144205	     -0.27499648	     11.38512667	     -2.31654448	     -8.20011689	    -44.45772548	     23.07828318	      0.10526141	      0.00000000	    -18.86338740	      2.09756327	     15.35925806	     -7.75984931	     19.53925383	     -2.95558702	      0.00000000	    -25.95456652	      0.73024059	     -6.98510797
      4.54500000	     11.53681067	      0.11600712	      2.34981134	      0.27739157	      0.94111218	     -0.27503115	     11.57490315	     -2.23339316	     -8.38461259	    -42.49836287	     23.34110931	      0.51285031	      0.00000000	    -19.43008577	      1.86475276	     15.44713917	     -7.49653993	     19.61407484	     -2.79900976	      0.00000000	    -26.04559790	      0.91536484	     -7.35644093
      4.55000000	     11.57916331	      0.07806727	      2.71149607	      0.28392069	      0.94076181	     -0.27507875	     11.69920788	     -2.16266120	     -8.55344028	    -40.45448697	     23.54633723	      0.87928982	      0.00000000	    -19.99539088	      1.63756780	     15.54010337	     -7.27318667	     19.66507933	     -2.62564124	      0.00000000	    -26.16592938	      1.09521939	     -7.75746608
